<?xml version="1.0" encoding="utf-8"?>
<!-- Generator: Adobe Illustrator 16.0.0, SVG Export Plug-In . SVG Version: 6.00 Build 0)  -->
<!DOCTYPE svg PUBLIC "-//W3C//DTD SVG 1.1//EN" "http://www.w3.org/Graphics/SVG/1.1/DTD/svg11.dtd">
<svg version="1.1" id="Layer_1" xmlns="http://www.w3.org/2000/svg" xmlns:xlink="http://www.w3.org/1999/xlink" x="0px" y="0px"
	 width="172.988px" height="60px" viewBox="0 0 172.988 60" enable-background="new 0 0 172.988 60" xml:space="preserve">
<g id="graphic">
	<rect id="red" y="2" fill-rule="evenodd" clip-rule="evenodd" fill="#AD2623" width="77" height="58"/>
	<path id="lines" fill="#FFFFFF" d="M37.61,11.244l-1.897,0.916l0.673-1.963l0.72-0.762l0.794-0.359L47.717,9h1.009l0.762,0.419
		l0.684,0.667l4.835,1.663l1.01,0.72l2.527,2.168l1.947,1.733l0.581,0.674l-2.741-0.948l-0.943-0.232l-2.381-0.504l-0.94-0.792
		l-2.524-1.157l-2.383-1.298l-2.16-0.552l-2.02-0.024l-2.312-0.364L37.61,11.244z M70.064,23.973l-3.216-2.044l-1.693-0.571
		c0,0-2.467-1.123-4.308-1.446c-1.844-0.325-3.986-0.124-4.486-0.051l-2.29,0.35l-2.119,0.124c-0.771-0.748-2.737-2.02-3.411-2.343
		c-0.674-0.325-3.812-1.771-3.812-1.771l-0.547,0.026l-0.422,0.199c-2.117-0.1-2.269,1.046-2.269,1.046L38.03,16.87
		c0,0-1.745-0.773-3.239-1.422c-1.494-0.647-3.488-0.972-3.488-0.972l-1.566-1.195c0,0,0.021-0.075-2.793,0.772
		c-2.814,0.849-3.287,1.669-4.857,2.642c-1.568,0.972-3.885,1.372-4.807,1.521s-1.745,0.349-1.745,0.349s-0.447,0.249-1.145,0.574
		c-0.697,0.323-0.846,0.722-0.846,0.722l-2.865,3.116c0,0-1.321,0.274-2.341,0.449c-1.021,0.175-1.322,0.448-1.322,0.448
		L4.451,25.52l-2.117,1.293l1.119,0.924c0,0,2.02,0.024,2.592-0.1c0.572-0.125,3.213-1.444,3.213-1.444s0.922-0.551,1.319-0.625
		c0.399-0.074,0.725,0.199,0.898,0.349c0.175,0.15,0.397,0.276,1.245,0.15c0.848-0.125,1.47-1.896,1.47-1.896l0.423-0.499
		l0.823-1.047l1.495-1.121l0.721-0.498l2.465-0.026c0.102,0,0.799-0.049,0.799-0.049l2.042-0.423l0.997-0.249
		c0,0,0.673-0.647,0.946-0.798c0.274-0.148,0.973-0.923,0.973-0.923l3.312-1.419l0.773-0.051c0,0,1.145,0.075,1.469,0.175
		c0.326,0.1,3.712,1.721,3.712,1.721l4.884,2.292l0.646,0.053l2.218,0.028l1.07-0.167l0.697-0.432l0.996-0.668l1.322,0.534
		l1.568,1.088L51.778,24h1.546h6.178h0.473l2.59,0.647l0.4-0.102l2.49,0.301l1.669,1.021c0,0,1.62,1.521,1.646,1.621
		c0.023,0.101,2.191,0,2.191,0l1.618-0.35L70.064,23.973z M35.254,29.785l-3.076,1.858l-4.067,5.225c0,0-2.481,2.89-4.191,5.224
		c-1.706,2.334-2.925,6.74-2.925,6.74l2.628,0.893l1.116-2.445c0,0,0.334-2.854,2.368-6.488
		C29.141,37.157,35.254,29.785,35.254,29.785z M30.963,30.528l-3.15,1.367l-1.115,1.226c0,0-5.332,5.299-7.479,7.484
		c-2.145,2.185-3.668,6.191-3.668,6.191s2.219,1.3,2.443,1.262c0.223-0.036,0.928-1.783,0.928-1.783s2.666-5.559,3.781-7.037
		C23.817,37.759,30.777,30.751,30.963,30.528z M20.111,36.645c3.92-3.523,6.4-5.522,6.4-5.522l-3.148,1.107
		c0,0-4.07,3.672-4.961,4.341c-0.891,0.67-3.929,3.039-5.406,5.039c-1.478,1.998-1.85,3.15-1.85,3.15l2.07,1.33l1.19-1.479
		C14.407,44.611,16.191,40.168,20.111,36.645z M14.956,36.497c3.224-2.521,6.372-4.779,6.372-4.779
		c-0.297,0-2.627,0.699-2.627,0.699s-4.154,3.306-5.964,4.413c-1.813,1.106-3.856,2.49-5.853,5.93l1.67,1.406
		c0,0,0.697-0.587,1.516-1.814C10.886,41.125,11.732,39.016,14.956,36.497z M36.405,31.494l-3.112,4.926
		c0,0-3.928,5.522-5.221,8.043c-1.291,2.52-1.783,6.525-1.783,6.525l2.891,0.66l0.742-1.701c0,0,0.781-5.336,2.256-8.637
		c1.48-3.298,7.303-12.008,7.303-12.121L36.405,31.494z M61.889,46.871c0,0-5.295-0.893-14.299-0.893
		c-9.001,0-14.594,1.077-14.594,1.077l-0.557,2.409c0,0,6.261-1.145,14.818-1.145c8.555,0,17.26,1.59,17.26,1.59
		s-0.186-0.483-0.261-1.442C64.183,47.51,61.889,46.871,61.889,46.871z M61.951,42.377c0,0-4.834-0.837-13.252-0.837
		c-8.414,0-13.891,0.999-13.891,0.999l-0.262,2.273c0,0,5.812-1.088,13.811-1.088c7.998,0,16.182,1.504,16.182,1.504
		s-0.222-0.453-0.292-1.349C64.178,42.983,61.951,42.377,61.951,42.377z M62.055,38.05c0,0-4.375-0.781-12.207-0.781
		c-7.83,0-12.739,0.949-12.739,0.949l-0.417,2.106c0,0,5.361-1.029,12.805-1.029s15.103,1.418,15.103,1.418s-0.258-0.42-0.324-1.254
		C64.212,38.623,62.055,38.05,62.055,38.05z M38.651,36.545c0,0,4.909-0.974,11.796-0.974c6.889,0,14.026,1.332,14.026,1.332
		s-0.296-0.391-0.357-1.161c-0.06-0.77-2.145-1.314-2.145-1.314s-3.917-0.723-11.162-0.723s-11.814,0.883-11.814,0.883
		L38.651,36.545z M64.457,33.035c0,0-0.331-0.357-0.386-1.064c-0.056-0.71-2.073-1.22-2.073-1.22s-3.453-0.669-10.113-0.669
		c-6.664,0-10.889,0.818-10.889,0.818l-0.275,1.807c0,0,4.459-0.915,10.791-0.915S64.457,33.035,64.457,33.035z"/>
</g>
<path id="logo-text_1_" fill-rule="evenodd" clip-rule="evenodd" fill="#F4F4F4" d="M88.619,57.309h0.789v0.441
	c0,1.25-0.053,1.698-0.664,1.698c-0.565,0-0.836-0.499-0.836-2.661c0-1.03,0.062-2.276,0.863-2.284c0.429,0,0.576,0.433,0.637,0.782
	l0.533-0.211c-0.145-0.635-0.493-1.099-1.189-1.099c-1.237,0-1.403,1.481-1.403,2.857c0,1.847,0.118,3.142,1.348,3.142
	c1.208,0,1.255-1.162,1.255-2.086v-1.077h-1.332V57.309 M91.93,59.897v-2.861l1.253,2.861h0.575l-1.293-2.851
	c0.936-0.032,1.1-0.763,1.1-1.507c0-1.427-0.783-1.487-1.594-1.487h-0.584v5.845H91.93z M91.93,54.549h0.109
	c0.689,0,0.967,0.092,0.967,1.016c0,0.768-0.124,1.03-0.883,1.03H91.93V54.549z M97.441,54.053h-0.544v3.961
	c0,0.967-0.062,1.435-0.682,1.435c-0.624,0-0.682-0.468-0.682-1.435v-3.961h-0.542v3.992c0,1.047,0.055,1.93,1.224,1.93
	c1.137,0,1.226-0.854,1.226-1.93V54.053z M99.564,59.897v-2.8h0.141c1.105,0,1.502-0.395,1.502-1.525c0-1.444-0.744-1.52-1.58-1.52
	h-0.605v5.845H99.564z M99.564,54.549h0.109c0.757,0,0.975,0.216,0.975,1.023c-0.024,0.752-0.115,1.031-0.875,1.031h-0.209V54.549z
	 M103.734,53.976c-1.238,0-1.433,1.519-1.433,3.001c0,1.363,0.157,2.998,1.433,2.998c1.354,0,1.434-1.906,1.434-2.998
	C105.168,55.689,105.051,53.976,103.734,53.976z M103.734,54.503c0.837,0,0.875,1.44,0.875,2.474c0,1.027-0.038,2.472-0.875,2.472
	c-0.836,0-0.874-1.444-0.874-2.472C102.86,55.943,102.898,54.464,103.734,54.503z M108.889,59.897h0.628
	c1.434,0,1.804-0.636,1.804-2.921c0-2.785-0.726-2.924-1.841-2.924h-0.591V59.897z M109.434,54.549h0.091
	c1.03,0,1.237,0.418,1.237,2.428c0,1.689-0.131,2.423-1.175,2.423h-0.153V54.549z M114.592,54.053h-1.834v5.845h1.834v-0.498h-1.291
	v-2.292h1.254v-0.496h-1.254v-2.062h1.291V54.053z M118.34,59.897h0.627c1.433,0,1.803-0.636,1.803-2.921
	c0-2.785-0.729-2.924-1.842-2.924h-0.588V59.897z M118.879,54.549h0.094c1.031,0,1.24,0.418,1.24,2.428
	c0,1.689-0.132,2.423-1.176,2.423h-0.158V54.549z M124.041,54.053h-1.834v5.845h1.834v-0.498h-1.293v-2.292h1.254v-0.496h-1.254
	v-2.062h1.293V54.053z M127.529,54.285c-0.277-0.194-0.573-0.31-0.92-0.31c-0.859,0-1.339,0.768-1.339,1.55
	c0,0.838,0.503,1.215,0.997,1.559c0.496,0.35,0.999,0.65,0.991,1.332c0.008,0.527-0.308,1.032-0.88,1.032
	c-0.371,0-0.699-0.208-0.945-0.473v0.704c0.264,0.202,0.597,0.295,0.922,0.295c0.911,0,1.461-0.807,1.461-1.659
	c0-0.806-0.494-1.179-0.988-1.528c-0.504-0.34-1-0.656-1-1.34c0-0.496,0.302-0.944,0.843-0.944c0.373,0,0.628,0.208,0.858,0.472
	V54.285z M130.385,54.053h-0.512l-1.146,5.845h0.581l0.21-1.204h1.238l0.217,1.204h0.578L130.385,54.053z M129.609,58.221
	l0.342-2.238c0.062-0.396,0.102-0.799,0.154-1.194c0.078,0.396,0.107,0.799,0.178,1.194l0.385,2.238H129.609z M133.236,59.897
	v-2.861l1.257,2.861h0.571l-1.293-2.851c0.938-0.032,1.102-0.763,1.102-1.507c0-1.427-0.783-1.487-1.598-1.487h-0.579v5.845H133.236
	z M133.236,54.549h0.109c0.689,0,0.966,0.092,0.966,1.016c0,0.768-0.12,1.03-0.878,1.03h-0.197V54.549z M136.865,59.897v-2.861
	l1.255,2.861h0.573l-1.292-2.851c0.935-0.032,1.1-0.763,1.1-1.507c0-1.427-0.784-1.487-1.597-1.487h-0.58v5.845H136.865z
	 M136.865,54.549h0.111c0.689,0,0.967,0.092,0.967,1.016c0,0.768-0.124,1.03-0.881,1.03h-0.197V54.549z M141.216,53.976
	c-1.24,0-1.431,1.519-1.431,3.001c0,1.363,0.152,2.998,1.431,2.998c1.354,0,1.431-1.906,1.431-2.998
	C142.646,55.689,142.531,53.976,141.216,53.976z M141.216,54.503c0.834,0,0.872,1.44,0.872,2.474c0,1.027-0.038,2.472-0.872,2.472
	c-0.839,0-0.876-1.444-0.876-2.472C140.34,55.943,140.377,54.464,141.216,54.503z M144.625,54.053h-0.542v5.845h1.813v-0.498h-1.271
	V54.053z M147.582,54.053h-0.543v5.845h1.811v-0.498h-1.268V54.053z M151.255,53.976c-1.239,0-1.431,1.519-1.431,3.001
	c0,1.363,0.154,2.998,1.431,2.998c1.354,0,1.433-1.906,1.433-2.998C152.688,55.689,152.57,53.976,151.255,53.976z M151.255,54.503
	c0.836,0,0.873,1.44,0.873,2.474c0,1.027-0.037,2.472-0.873,2.472c-0.837,0-0.875-1.444-0.875-2.472
	C150.38,55.943,150.418,54.464,151.255,54.503z M156.949,59.897v-2.861l1.257,2.861h0.573l-1.293-2.851
	c0.935-0.032,1.096-0.763,1.096-1.507c0-1.427-0.779-1.487-1.591-1.487h-0.583v5.845H156.949z M156.949,54.549h0.112
	c0.687,0,0.966,0.092,0.966,1.016c0,0.768-0.124,1.03-0.883,1.03h-0.195V54.549z M162.461,54.053h-0.541v3.961
	c0,0.967-0.062,1.435-0.682,1.435c-0.627,0-0.682-0.468-0.682-1.435v-3.961h-0.541v3.992c0,1.047,0.055,1.93,1.223,1.93
	c1.139,0,1.223-0.854,1.223-1.93V54.053z M164.588,59.897v-2.861l1.252,2.861h0.574l-1.295-2.851c0.939-0.032,1.1-0.763,1.1-1.507
	c0-1.427-0.781-1.487-1.594-1.487h-0.58v5.845H164.588z M164.588,54.549h0.107c0.687,0,0.967,0.092,0.967,1.016
	c0,0.768-0.123,1.03-0.884,1.03h-0.19V54.549z M168.865,54.053h-0.513l-1.145,5.845h0.581l0.208-1.204h1.239l0.216,1.204h0.581
	L168.865,54.053z M168.09,58.221l0.341-2.238c0.062-0.396,0.103-0.799,0.157-1.194c0.076,0.396,0.107,0.799,0.176,1.194l0.387,2.238
	H168.09z M171.719,54.053h-0.54v5.845h1.81v-0.498h-1.27V54.053z M92.534,21.283c-0.497-0.922-1.38-1.459-2.426-1.459
	c-1.394,0-2.626,0.935-2.626,2.394c0,1.346,0.949,1.907,2.041,2.406l0.572,0.251c0.872,0.397,1.728,0.771,1.728,1.869
	c0,1.059-0.917,1.832-1.929,1.832c-1.005,0-1.739-0.788-1.873-1.747L87,27.115c0.297,1.459,1.416,2.429,2.923,2.429
	c1.632,0,2.946-1.259,2.946-2.905c0-1.495-1.031-2.106-2.25-2.64l-0.622-0.275c-0.632-0.286-1.468-0.659-1.468-1.472
	c0-0.859,0.721-1.457,1.555-1.457c0.797,0,1.245,0.374,1.619,1.024L92.534,21.283z M99.157,19.987h-1.044v5.88
	c0,1.075,0.099,1.934,0.921,2.719c0.637,0.623,1.545,0.958,2.427,0.958c0.947,0,1.878-0.372,2.527-1.07
	c0.744-0.773,0.818-1.582,0.818-2.606v-5.88h-1.042v5.597c0,0.733,0.034,1.556-0.463,2.155c-0.435,0.521-1.169,0.835-1.841,0.835
	c-0.686,0-1.481-0.325-1.895-0.897c-0.434-0.601-0.409-1.396-0.409-2.093V19.987z M111.943,20.957h0.312
	c1.257,0,2.39,0.148,2.39,1.695c0,1.46-1.195,1.685-2.375,1.685h-0.326V20.957z M111.943,25.259h0.262l2.836,4.125h1.283
	l-2.986-4.215c1.441-0.122,2.351-1.146,2.351-2.59c0-2.118-1.655-2.591-3.434-2.591H110.9v9.396h1.043V25.259z M125.552,19.823
	c-2.677,0-4.892,2.182-4.892,4.875c0,2.703,2.215,4.846,4.892,4.846s4.889-2.143,4.889-4.846
	C130.44,22.005,128.229,19.823,125.552,19.823z M125.552,20.796c2.149,0,3.845,1.759,3.845,3.891c0,2.117-1.717,3.888-3.845,3.888
	s-3.847-1.771-3.847-3.888C121.705,22.555,123.396,20.796,125.552,20.796z M135.725,29.383h4.861V28.41h-3.817v-3.688h3.707v-0.971
	h-3.707v-2.794h3.817v-0.97h-4.861V29.383z M150.695,21.283c-0.497-0.922-1.382-1.459-2.427-1.459c-1.394,0-2.624,0.935-2.624,2.394
	c0,1.346,0.946,1.907,2.041,2.406l0.57,0.251c0.871,0.397,1.73,0.771,1.73,1.869c0,1.059-0.92,1.832-1.93,1.832
	c-1.007,0-1.742-0.788-1.879-1.747l-1.018,0.287c0.294,1.459,1.414,2.429,2.922,2.429c1.632,0,2.949-1.259,2.949-2.905
	c0-1.495-1.035-2.106-2.251-2.64l-0.623-0.275c-0.636-0.286-1.468-0.659-1.468-1.472c0-0.859,0.723-1.457,1.555-1.457
	c0.797,0,1.244,0.374,1.617,1.024L150.695,21.283z M158.664,20.957h2.289v-0.97h-5.6v0.97h2.264v8.426h1.047V20.957z
	 M165.889,29.383h4.863V28.41h-3.818v-3.688h3.707v-0.971h-3.707v-2.794h3.818v-0.97h-4.863V29.383z M92.534,4.712
	c-0.497-0.925-1.38-1.459-2.426-1.459c-1.394,0-2.626,0.935-2.626,2.394c0,1.347,0.949,1.906,2.041,2.403l0.572,0.25
	c0.872,0.399,1.728,0.772,1.728,1.869c0,1.06-0.917,1.832-1.929,1.832c-1.005,0-1.739-0.783-1.873-1.743L87,10.544
	c0.297,1.456,1.416,2.428,2.923,2.428c1.632,0,2.946-1.258,2.946-2.901c0-1.497-1.031-2.109-2.25-2.644l-0.622-0.272
	c-0.632-0.288-1.468-0.661-1.468-1.473c0-0.859,0.721-1.458,1.555-1.458c0.797,0,1.245,0.375,1.619,1.023L92.534,4.712z
	 M98.264,12.81h4.865v-0.971h-3.82V8.15h3.707V7.178h-3.707V4.385h3.82V3.414h-4.865V12.81z M110.436,4.385h0.312
	c1.261,0,2.389,0.151,2.389,1.696c0,1.457-1.192,1.684-2.375,1.684h-0.325V4.385z M110.436,8.685h0.262l2.836,4.125h1.281
	l-2.984-4.211c1.441-0.126,2.351-1.146,2.351-2.591c0-2.119-1.653-2.594-3.434-2.594h-1.356v9.396h1.045V8.685z M121.418,4.385
	h0.312c1.256,0,2.389,0.151,2.389,1.696c0,1.457-1.196,1.684-2.378,1.684h-0.322V4.385z M121.418,8.685h0.262l2.836,4.125h1.283
	l-2.99-4.211c1.447-0.126,2.354-1.146,2.354-2.591c0-2.119-1.653-2.594-3.434-2.594h-1.356v9.396h1.045V8.685z M136.145,10.144
	l1.107,2.666h1.158l-4.219-9.844l-4.332,9.844h1.145l1.134-2.666H136.145z M135.732,9.171h-3.172l1.606-3.763L135.732,9.171z
	 M142.983,12.81h1.044V5.569l7.315,7.667V3.414h-1.046v7.279l-7.313-7.678V12.81z M157.937,0l-1.481,2.044l0.621,0.349l1.904-1.919
	L157.937,0z M158.234,3.414h-1.046v9.396h1.046V3.414z M169.412,10.144l1.107,2.666h1.156l-4.219-9.844l-4.33,9.844h1.146
	l1.13-2.666H169.412z M169.001,9.171h-3.172l1.604-3.763L169.001,9.171z M94.846,37.193c-0.684-1.258-1.887-1.99-3.315-1.99
	c-1.903,0-3.583,1.278-3.583,3.268c0,1.84,1.289,2.605,2.783,3.287l0.784,0.34c1.189,0.542,2.362,1.054,2.362,2.553
	c0,1.447-1.258,2.501-2.635,2.501c-1.373,0-2.38-1.071-2.564-2.38l-1.395,0.389c0.408,1.991,1.934,3.318,3.992,3.318
	c2.227,0,4.029-1.718,4.029-3.965c0-2.043-1.412-2.874-3.076-3.609l-0.851-0.374c-0.866-0.391-2.003-0.9-2.003-2.007
	c0-1.178,0.982-1.992,2.121-1.992c1.089,0,1.703,0.512,2.211,1.396L94.846,37.193z M97.389,48.26h6.641v-1.329h-5.215v-5.038h5.062
	v-1.329h-5.062v-3.812h5.215v-1.328h-6.641V48.26z M106.472,35.424h-1.548l5.199,13.602l5.198-13.602h-1.544l-3.654,9.787
	L106.472,35.424z M118.34,35.424h-1.428V48.26h1.428V35.424z M122.869,35.424h-1.426V48.26h6.375v-1.329h-4.949V35.424z
	 M130.432,35.424h-1.426V48.26h6.376v-1.329h-4.95V35.424z M144.297,44.617l1.512,3.643h1.579l-5.759-13.447l-5.913,13.447h1.562
	l1.545-3.643H144.297z M143.736,43.289h-4.331l2.192-5.141L143.736,43.289z M148.48,48.26h1.34v-9.875l9.369,10.453V35.445h-1.338
	v9.925l-9.371-10.468V48.26z M168.854,44.617l1.516,3.643h1.579l-5.761-13.447l-5.914,13.447h1.564l1.548-3.643H168.854z
	 M168.296,43.289h-4.334l2.192-5.141L168.296,43.289z"/>
</svg>
