<?xml version="1.0" encoding="utf-8"?>
<!-- Generator: Adobe Illustrator 16.0.0, SVG Export Plug-In . SVG Version: 6.00 Build 0)  -->
<!DOCTYPE svg PUBLIC "-//W3C//DTD SVG 1.1//EN" "http://www.w3.org/Graphics/SVG/1.1/DTD/svg11.dtd">
<svg version="1.1" id="sprearound" xmlns="http://www.w3.org/2000/svg" xmlns:xlink="http://www.w3.org/1999/xlink" x="0px" y="0px"
	 width="166px" height="100px" viewBox="0 0 166 100" enable-background="new 0 0 166 100" xml:space="preserve">
<path id="ico_x5F_edit" fill="#2C3034" d="M145,56v-2h-2v-0.478l1.002-0.812l2.194,2.288L145.479,56H145z M150.085,47.487
	l-4.839,4.839c-0.042,0.042-0.093,0.062-0.152,0.062c-0.131,0-0.196-0.065-0.196-0.196c0-0.06,0.021-0.11,0.062-0.151l4.84-4.84
	c0.041-0.041,0.092-0.062,0.151-0.062c0.131,0,0.196,0.065,0.196,0.197C150.147,47.396,150.127,47.445,150.085,47.487
	L150.085,47.487z M142,53.05V57h3.951l7.429-7.546l-3.833-3.774L142,53.05z M155.434,45.666l-2.099-2.09
	c-0.226-0.226-0.497-0.339-0.812-0.339c-0.321,0-0.589,0.113-0.804,0.339l-1.481,1.474l3.714,3.714l1.482-1.481
	c0.22-0.221,0.33-0.488,0.33-0.804C155.764,46.169,155.653,45.897,155.434,45.666L155.434,45.666z"/>
<g id="ico_x5F_cloud_x5F_upload">
	<path fill="#959799" d="M124.572,52.366c0,0.947-0.335,1.857-1.004,2.527c-0.67,0.669-1.478,1.107-2.425,1.107h-9.714
		c-1.102,0-2.043-0.494-2.826-1.277c-0.782-0.782-1.174-1.776-1.174-2.877c0-0.774,0.208-1.513,0.625-2.168
		c0.417-0.654,0.977-1.159,1.679-1.486c-0.012-0.178-0.018-0.312-0.018-0.39c0-1.262,0.446-2.342,1.339-3.235
		c0.893-0.893,1.97-1.341,3.232-1.341c0.929,0,1.778,0.258,2.549,0.776c0.771,0.518,1.332,1.205,1.683,2.062
		c0.423-0.369,0.917-0.554,1.482-0.554c0.631,0,1.17,0.223,1.616,0.669c0.446,0.447,0.67,0.985,0.67,1.616
		c0,0.453-0.122,0.863-0.366,1.232c0.773,0.185,1.409,0.588,1.906,1.21S124.572,51.569,124.572,52.366z M118.858,49.795
		c0-0.083-0.027-0.152-0.08-0.206l-3.144-3.143c-0.054-0.054-0.122-0.081-0.205-0.081s-0.151,0.027-0.205,0.081l-3.134,3.134
		c-0.06,0.071-0.09,0.143-0.09,0.214c0,0.083,0.027,0.111,0.08,0.165c0.054,0.054,0.122,0.04,0.206,0.04H114v3.224
		c0,0.077,0.172,0.39,0.229,0.446c0.056,0.057,0.266,0.33,0.343,0.33h1.715c0.077,0,0.358-0.273,0.415-0.33S117,53.301,117,53.224
		V50h1.572c0.077,0,0.145,0.012,0.201-0.045C118.83,49.899,118.858,49.873,118.858,49.795z"/>
</g>
<g id="ico_x5F_angle_x5F_down_x5F_big">
	<path fill="#2C3034" d="M82.895,53l-4.894-5.104l1.443-1.385l3.51,3.661l3.66-3.51l1.384,1.444L82.895,53z"/>
</g>
<path id="ico_x5F_angle_x5F_down" fill="#FFFFFF" d="M50,53c-0.256,0-0.512-0.098-0.707-0.293l-3-3
	c-0.391-0.391-0.391-1.023,0-1.414s1.023-0.391,1.414,0L50,50.586l2.293-2.293c0.391-0.391,1.023-0.391,1.414,0s0.391,1.023,0,1.414
	l-3,3C50.512,52.902,50.256,53,50,53z"/>
<g id="ico_x5F_caret">
	<path fill="#FFFFFF" d="M17,52c-0.256,0-0.512-0.098-0.707-0.293l-2-2c-0.286-0.286-0.371-0.716-0.217-1.09
		C14.23,48.244,14.596,48,15,48h4c0.404,0,0.77,0.244,0.924,0.617c0.154,0.374,0.069,0.804-0.217,1.09l-2,2
		C17.512,51.902,17.256,52,17,52z"/>
</g>
<g id="ico_x5F_town">
	<path fill="#2C3034" d="M158,26h-11v-8h7l4,4V26z"/>
	<path fill="#2C3034" d="M143,8l-3,6v12h6V14L143,8z M143,17c-0.828,0-1.5-0.671-1.5-1.5c0-0.828,0.672-1.5,1.5-1.5
		s1.5,0.672,1.5,1.5C144.5,16.329,143.828,17,143,17z"/>
</g>
<path id="ico_x5F_close" fill="#2B3033" d="M123.707,23.292l-6.293-6.293l6.292-6.292l-1.414-1.414L116,15.586l-6.293-6.293
	l-1.414,1.414L114.586,17l-6.293,6.293l1.414,1.414L116,18.414l6.293,6.292L123.707,23.292z"/>
<path id="ico_x5F_back_x5F_to_x5F_page" fill-rule="evenodd" clip-rule="evenodd" fill="#8F9293" d="M90.889,14H75.716l4.062-4.096
	l-0.76-0.82L74,14.138v-0.005l-0.846,0.801l0.781,0.802l5.051,5.061l0.797-0.77L75.717,16H91v9h2v-9.068V14H90.889z"/>
<g id="ico_x5F_user_x5F_off_3_">
	<g>
		<path fill="#FFFFFF" d="M50,17.791c0.553,0,1-0.448,1-1v-9c0-0.552-0.447-1-1-1s-1,0.448-1,1v9C49,17.343,49.447,17.791,50,17.791
			z M58.817,14.977c-0.12-0.583-0.298-1.152-0.525-1.688c-0.226-0.535-0.505-1.05-0.83-1.53c-0.323-0.478-0.693-0.926-1.098-1.33
			c-0.407-0.407-0.855-0.777-1.332-1.099c-0.459-0.31-1.079-0.188-1.389,0.269c-0.309,0.458-0.188,1.079,0.27,1.388
			c0.371,0.25,0.719,0.538,1.036,0.856c0.316,0.315,0.604,0.665,0.856,1.037c0.252,0.372,0.469,0.772,0.645,1.189
			c0.178,0.417,0.314,0.858,0.408,1.311C56.952,15.84,57,16.315,57,16.791s-0.048,0.951-0.142,1.41
			c-0.094,0.455-0.23,0.896-0.408,1.314c-0.176,0.416-0.393,0.815-0.645,1.188c-0.252,0.373-0.54,0.722-0.857,1.038
			c-0.316,0.317-0.664,0.604-1.034,0.854c-0.377,0.253-0.776,0.471-1.19,0.646c-0.422,0.179-0.863,0.316-1.312,0.408
			c-0.918,0.188-1.903,0.188-2.823,0c-0.448-0.092-0.89-0.229-1.312-0.408c-0.413-0.174-0.812-0.392-1.188-0.645
			c-0.371-0.25-0.719-0.538-1.036-0.856c-0.316-0.315-0.604-0.665-0.856-1.037c-0.252-0.372-0.469-0.772-0.645-1.189
			c-0.178-0.417-0.314-0.858-0.408-1.311C43.048,17.742,43,17.267,43,16.791s0.048-0.951,0.142-1.41
			c0.094-0.455,0.23-0.896,0.408-1.314c0.176-0.416,0.393-0.815,0.645-1.188c0.252-0.373,0.54-0.722,0.857-1.038
			c0.316-0.317,0.664-0.604,1.035-0.855c0.458-0.309,0.578-0.931,0.27-1.388c-0.31-0.458-0.931-0.579-1.389-0.269
			c-0.477,0.322-0.925,0.692-1.331,1.098c-0.405,0.405-0.775,0.853-1.099,1.331c-0.325,0.48-0.604,0.995-0.83,1.529
			c-0.228,0.538-0.405,1.106-0.525,1.692C41.062,15.571,41,16.181,41,16.791s0.062,1.22,0.183,1.814
			c0.12,0.583,0.298,1.152,0.525,1.688c0.226,0.535,0.505,1.05,0.83,1.53c0.323,0.478,0.693,0.926,1.098,1.33
			c0.407,0.407,0.855,0.777,1.332,1.1c0.483,0.326,0.998,0.604,1.529,0.829c0.544,0.23,1.112,0.407,1.689,0.525
			c0.591,0.122,1.201,0.183,1.813,0.183s1.223-0.062,1.812-0.183c0.578-0.118,1.146-0.294,1.689-0.524
			c0.532-0.225,1.047-0.504,1.53-0.83c0.477-0.322,0.925-0.692,1.331-1.098c0.405-0.405,0.775-0.853,1.099-1.331
			c0.325-0.48,0.604-0.995,0.83-1.529c0.228-0.538,0.405-1.106,0.525-1.692C58.938,18.011,59,17.401,59,16.791
			S58.938,15.571,58.817,14.977z"/>
	</g>
</g>
<path id="ico_x5F_plus" fill="#FFFFFF" d="M17,5C10.373,5,5,10.373,5,17s5.373,12,12,12s12-5.373,12-12S23.627,5,17,5z M17,27
	c-5.514,0-10-4.486-10-10S11.486,7,17,7s10,4.486,10,10S22.514,27,17,27z M18,10h-2v6h-6v2h6v6h2v-6h6v-2h-6V10z"/>
<g id="ico_x5F_search">
	<path fill="#959799" d="M24.854,89.439l-4.82-4.82c0.698-0.98,1.113-2.177,1.113-3.473c0-3.313-2.687-6-6-6s-6,2.687-6,6
		s2.687,6,6,6c1.295,0,2.492-0.415,3.473-1.113l4.82,4.82L24.854,89.439z M11.146,81.147c0-2.206,1.795-4,4-4s4,1.794,4,4
		s-1.795,4-4,4S11.146,83.353,11.146,81.147z"/>
</g>
<g id="ico_x5F_check">
	<path fill="#FFFFFF" d="M56.67,79.161l-1.215-1.214c-0.166-0.167-0.369-0.25-0.606-0.25c-0.238,0-0.441,0.083-0.607,0.25
		l-5.857,5.866l-2.625-2.634c-0.167-0.167-0.369-0.25-0.607-0.25c-0.237,0-0.44,0.083-0.606,0.25l-1.215,1.215
		c-0.166,0.166-0.25,0.369-0.25,0.606c0,0.238,0.084,0.44,0.25,0.607l3.232,3.232l1.214,1.214c0.167,0.167,0.369,0.25,0.607,0.25
		s0.44-0.083,0.607-0.25l1.214-1.214l6.465-6.465c0.166-0.166,0.25-0.369,0.25-0.607S56.836,79.328,56.67,79.161L56.67,79.161z"/>
</g>
<g id="ico_x5F_return">
	<path fill="#2B3033" d="M90.527,82.312c-0.964-2.399-3.568-3.598-7.812-3.598h-2v-2.286c0-0.154-0.057-0.289-0.17-0.402
		c-0.113-0.113-0.247-0.169-0.401-0.169c-0.155,0-0.289,0.056-0.402,0.169l-4.572,4.572C75.057,80.711,75,80.845,75,81
		s0.057,0.289,0.169,0.401l4.572,4.572c0.113,0.113,0.247,0.169,0.402,0.169c0.154,0,0.289-0.056,0.401-0.169
		c0.113-0.113,0.17-0.247,0.17-0.402v-2.286h2c0.583,0,1.105,0.018,1.567,0.054s0.919,0.1,1.375,0.192
		c0.456,0.093,0.851,0.219,1.188,0.38c0.336,0.16,0.65,0.367,0.942,0.62s0.53,0.554,0.714,0.901
		c0.185,0.349,0.329,0.761,0.433,1.237c0.104,0.476,0.156,1.015,0.156,1.616c0,0.328-0.015,0.694-0.045,1.098
		c0,0.036-0.007,0.106-0.022,0.21C89.007,89.698,89,89.777,89,89.831c0,0.089,0.025,0.164,0.076,0.223
		c0.051,0.059,0.121,0.089,0.21,0.089c0.095,0,0.179-0.051,0.25-0.151c0.042-0.054,0.081-0.119,0.116-0.197
		c0.036-0.077,0.076-0.167,0.121-0.268c0.044-0.101,0.076-0.173,0.094-0.214C90.622,87.616,91,86.274,91,85.286
		C91,84.102,90.842,83.11,90.527,82.312L90.527,82.312z"/>
</g>
<path fill="#959799" d="M116,83c-0.631,0-1.17-0.223-1.616-0.669s-0.67-0.985-0.67-1.616s0.224-1.17,0.67-1.616
	s0.985-0.67,1.616-0.67s1.17,0.224,1.616,0.67s0.669,0.985,0.669,1.616s-0.223,1.17-0.669,1.616S116.631,83,116,83z M119.232,77.482
	c-0.894-0.893-1.971-1.339-3.232-1.339s-2.34,0.446-3.232,1.339c-0.893,0.894-1.339,1.971-1.339,3.232
	c0,0.648,0.098,1.182,0.294,1.599l3.26,6.91c0.089,0.196,0.228,0.352,0.415,0.465c0.188,0.112,0.388,0.169,0.603,0.169
	c0.214,0,0.415-0.057,0.603-0.169c0.188-0.113,0.329-0.269,0.424-0.465l3.25-6.91c0.196-0.417,0.295-0.95,0.295-1.599
	C120.571,79.453,120.125,78.376,119.232,77.482z"/>
<path id="ico_x5F_plus_1_" fill="#2B3033" d="M149.25,71c-6.627,0-12,5.373-12,12s5.373,12,12,12s12-5.373,12-12
	S155.877,71,149.25,71z M149.25,93c-5.514,0-10-4.486-10-10s4.486-10,10-10s10,4.486,10,10S154.764,93,149.25,93z M150,76h-2v6h-6v2
	h6v6h2v-6h6v-2h-6V76z"/>
</svg>
